<svg width="517" height="128" viewBox="0 0 517 128" fill="none" xmlns="http://www.w3.org/2000/svg">
<mask id="path-1-outside-1" maskUnits="userSpaceOnUse" x="0.30249" y="3.83203" width="513" height="124" fill="black">
<rect fill="white" x="0.30249" y="3.83203" width="513" height="124"/>
<path d="M474.031 24.5312L500.919 28.0711L489.428 80.419L471.463 78.0539L474.031 24.5312ZM476.37 110.653C472.404 110.131 469.309 108.513 467.084 105.8C464.869 103.007 463.992 99.8654 464.451 96.3755C464.921 92.8063 466.577 90.0387 469.418 88.0727C472.259 86.1067 475.662 85.3847 479.628 85.9068C483.593 86.4289 486.654 88.0019 488.81 90.6258C491.046 93.2601 491.928 96.3618 491.458 99.931C490.999 103.421 489.338 106.228 486.477 108.353C483.625 110.398 480.256 111.165 476.37 110.653Z"/>
<path d="M450.44 20.96V110H428.72V103.52C424.48 108.56 418.12 111.08 409.64 111.08C403.72 111.08 398.32 109.72 393.44 107C388.56 104.2 384.68 100.24 381.8 95.12C379 90 377.6 84.08 377.6 77.36C377.6 70.64 379 64.76 381.8 59.72C384.68 54.6 388.56 50.68 393.44 47.96C398.32 45.24 403.72 43.88 409.64 43.88C417.4 43.88 423.4 46.12 427.64 50.6V20.96H450.44ZM414.44 92.96C418.36 92.96 421.6 91.6 424.16 88.88C426.72 86.08 428 82.24 428 77.36C428 72.56 426.72 68.8 424.16 66.08C421.68 63.36 418.44 62 414.44 62C410.44 62 407.16 63.36 404.6 66.08C402.04 68.8 400.76 72.56 400.76 77.36C400.76 82.24 402.04 86.08 404.6 88.88C407.16 91.6 410.44 92.96 414.44 92.96Z"/>
<path d="M369.975 80.0366C369.963 80.1962 369.713 82.0632 369.222 85.6377L322.057 82.3396C322.781 85.7584 324.435 88.4804 327.02 90.5057C329.69 92.4567 333.1 93.5773 337.25 93.8675C340.363 94.0852 343.067 93.8332 345.363 93.1116C347.738 92.3956 350.153 91.1209 352.607 89.2876L363.707 102.574C356.912 109.156 347.448 112.023 335.318 111.175C327.737 110.645 321.173 108.742 315.628 105.468C310.083 102.193 305.893 97.89 303.058 92.5592C300.303 87.2341 299.151 81.3394 299.603 74.8751C300.05 68.4907 301.965 62.8907 305.349 58.075C308.819 53.1852 313.367 49.4934 318.995 46.9999C324.623 44.5064 330.828 43.4969 337.612 43.9712C344.076 44.4232 349.847 46.1901 354.924 49.2718C360.007 52.2736 363.886 56.4344 366.562 61.754C369.322 66.9993 370.46 73.0935 369.975 80.0366ZM336.601 60.1401C333.09 59.8946 330.067 60.6856 327.534 62.5134C325.08 64.3466 323.414 66.9568 322.535 70.3438L349.11 72.2021C348.712 68.7258 347.385 65.9064 345.131 63.7439C342.956 61.5869 340.113 60.3856 336.601 60.1401Z"/>
<path d="M267.746 20.4118L290.514 21.6051L285.854 110.523L263.086 109.33L267.746 20.4118Z"/>
<path d="M232.065 46.6669L247.46 45.0488L249.242 61.9954L234.443 63.5508L239.21 108.901L216.534 111.284L211.768 65.9341L202.34 66.925L200.559 49.9783L209.987 48.9874L209.811 47.3166C208.983 39.44 210.674 32.9477 214.883 27.8398C219.172 22.7234 225.573 19.7179 234.086 18.8231C236.95 18.5221 239.764 18.5079 242.528 18.7805C245.291 19.0531 247.607 19.6544 249.474 20.5843L245.546 37.1657C243.184 36.1269 240.85 35.7287 238.543 35.9712C236.156 36.2221 234.361 37.1346 233.159 38.7089C232.037 40.2748 231.622 42.4501 231.915 45.2348L232.065 46.6669Z"/>
<path d="M173.419 46.7671L188.84 45.4179L190.325 62.3931L175.502 63.69L179.476 109.116L156.763 111.104L152.789 65.6771L143.345 66.5034L141.86 49.5282L151.304 48.702L151.157 47.0284C150.467 39.1385 152.271 32.6767 156.568 27.643C160.946 22.6023 167.398 19.7089 175.925 18.9629C178.795 18.7119 181.608 18.7468 184.367 19.0676C187.125 19.3884 189.43 20.0299 191.281 20.9923L187.064 37.5027C184.721 36.4228 182.394 35.9839 180.082 36.1861C177.692 36.3953 175.881 37.2764 174.652 38.8295C173.502 40.3755 173.05 42.5432 173.294 45.3326L173.419 46.7671Z"/>
<path d="M106.543 46.6731L129.148 43.6971L137.637 108.181L115.032 111.157L106.543 46.6731ZM116.906 38.0467C112.781 38.5897 109.299 37.8782 106.458 35.9122C103.617 33.9461 101.972 31.2579 101.523 27.8473C101.074 24.4367 101.967 21.4143 104.202 18.78C106.438 16.1457 109.617 14.557 113.742 14.0141C117.866 13.4711 121.344 14.1429 124.174 16.0296C126.994 17.837 128.629 20.446 129.078 23.8565C129.548 27.4257 128.67 30.5671 126.445 33.2807C124.21 35.915 121.03 37.5037 116.906 38.0467Z"/>
<path d="M82.3563 62.446C87.36 63.3545 91.4867 65.3738 94.7364 68.504C97.9736 71.5551 99.9864 75.5697 100.775 80.5476C101.926 87.817 99.8911 93.8901 94.6698 98.767C89.4484 103.644 81.3066 106.958 70.2445 108.71L25.443 115.806L12.3025 32.8404L54.7336 26.12C65.3216 24.443 73.694 25.1419 79.8508 28.2166C85.9951 31.2123 89.5928 36.0288 90.6441 42.666C91.2698 46.6168 90.8453 50.3289 89.3705 53.8024C87.9622 57.1843 85.6242 60.0655 82.3563 62.446ZM38.2173 46.1098L40.7516 62.1103L56.8706 59.5573C64.7722 58.3058 68.2974 54.9936 67.4464 49.6206C66.6079 44.3266 62.2379 42.3053 54.3364 43.5568L38.2173 46.1098ZM65.6637 92.062C73.8813 90.7604 77.5458 87.3046 76.6573 81.6945C75.7687 76.0845 71.2157 73.9302 62.9981 75.2317L43.3234 78.3479L45.989 95.1781L65.6637 92.062Z"/>
</mask>
<path d="M474.031 24.5312L500.919 28.0711L489.428 80.419L471.463 78.0539L474.031 24.5312ZM476.37 110.653C472.404 110.131 469.309 108.513 467.084 105.8C464.869 103.007 463.992 99.8654 464.451 96.3755C464.921 92.8063 466.577 90.0387 469.418 88.0727C472.259 86.1067 475.662 85.3847 479.628 85.9068C483.593 86.4289 486.654 88.0019 488.81 90.6258C491.046 93.2601 491.928 96.3618 491.458 99.931C490.999 103.421 489.338 106.228 486.477 108.353C483.625 110.398 480.256 111.165 476.37 110.653Z" stroke="#4B38D3" stroke-width="20" mask="url(#path-1-outside-1)"/>
<path d="M450.44 20.96V110H428.72V103.52C424.48 108.56 418.12 111.08 409.64 111.08C403.72 111.08 398.32 109.72 393.44 107C388.56 104.2 384.68 100.24 381.8 95.12C379 90 377.6 84.08 377.6 77.36C377.6 70.64 379 64.76 381.8 59.72C384.68 54.6 388.56 50.68 393.44 47.96C398.32 45.24 403.72 43.88 409.64 43.88C417.4 43.88 423.4 46.12 427.64 50.6V20.96H450.44ZM414.44 92.96C418.36 92.96 421.6 91.6 424.16 88.88C426.72 86.08 428 82.24 428 77.36C428 72.56 426.72 68.8 424.16 66.08C421.68 63.36 418.44 62 414.44 62C410.44 62 407.16 63.36 404.6 66.08C402.04 68.8 400.76 72.56 400.76 77.36C400.76 82.24 402.04 86.08 404.6 88.88C407.16 91.6 410.44 92.96 414.44 92.96Z" stroke="#4B38D3" stroke-width="20" mask="url(#path-1-outside-1)"/>
<path d="M369.975 80.0366C369.963 80.1962 369.713 82.0632 369.222 85.6377L322.057 82.3396C322.781 85.7584 324.435 88.4804 327.02 90.5057C329.69 92.4567 333.1 93.5773 337.25 93.8675C340.363 94.0852 343.067 93.8332 345.363 93.1116C347.738 92.3956 350.153 91.1209 352.607 89.2876L363.707 102.574C356.912 109.156 347.448 112.023 335.318 111.175C327.737 110.645 321.173 108.742 315.628 105.468C310.083 102.193 305.893 97.89 303.058 92.5592C300.303 87.2341 299.151 81.3394 299.603 74.8751C300.05 68.4907 301.965 62.8907 305.349 58.075C308.819 53.1852 313.367 49.4934 318.995 46.9999C324.623 44.5064 330.828 43.4969 337.612 43.9712C344.076 44.4232 349.847 46.1901 354.924 49.2718C360.007 52.2736 363.886 56.4344 366.562 61.754C369.322 66.9993 370.46 73.0935 369.975 80.0366ZM336.601 60.1401C333.09 59.8946 330.067 60.6856 327.534 62.5134C325.08 64.3466 323.414 66.9568 322.535 70.3438L349.11 72.2021C348.712 68.7258 347.385 65.9064 345.131 63.7439C342.956 61.5869 340.113 60.3856 336.601 60.1401Z" stroke="#4B38D3" stroke-width="20" mask="url(#path-1-outside-1)"/>
<path d="M267.746 20.4118L290.514 21.6051L285.854 110.523L263.086 109.33L267.746 20.4118Z" stroke="#4B38D3" stroke-width="20" mask="url(#path-1-outside-1)"/>
<path d="M232.065 46.6669L247.46 45.0488L249.242 61.9954L234.443 63.5508L239.21 108.901L216.534 111.284L211.768 65.9341L202.34 66.925L200.559 49.9783L209.987 48.9874L209.811 47.3166C208.983 39.44 210.674 32.9477 214.883 27.8398C219.172 22.7234 225.573 19.7179 234.086 18.8231C236.95 18.5221 239.764 18.5079 242.528 18.7805C245.291 19.0531 247.607 19.6544 249.474 20.5843L245.546 37.1657C243.184 36.1269 240.85 35.7287 238.543 35.9712C236.156 36.2221 234.361 37.1346 233.159 38.7089C232.037 40.2748 231.622 42.4501 231.915 45.2348L232.065 46.6669Z" stroke="#4B38D3" stroke-width="20" mask="url(#path-1-outside-1)"/>
<path d="M173.419 46.7671L188.84 45.4179L190.325 62.3931L175.502 63.69L179.476 109.116L156.763 111.104L152.789 65.6771L143.345 66.5034L141.86 49.5282L151.304 48.702L151.157 47.0284C150.467 39.1385 152.271 32.6767 156.568 27.643C160.946 22.6023 167.398 19.7089 175.925 18.9629C178.795 18.7119 181.608 18.7468 184.367 19.0676C187.125 19.3884 189.43 20.0299 191.281 20.9923L187.064 37.5027C184.721 36.4228 182.394 35.9839 180.082 36.1861C177.692 36.3953 175.881 37.2764 174.652 38.8295C173.502 40.3755 173.05 42.5432 173.294 45.3326L173.419 46.7671Z" stroke="#4B38D3" stroke-width="20" mask="url(#path-1-outside-1)"/>
<path d="M106.543 46.6731L129.148 43.6971L137.637 108.181L115.032 111.157L106.543 46.6731ZM116.906 38.0467C112.781 38.5897 109.299 37.8782 106.458 35.9122C103.617 33.9461 101.972 31.2579 101.523 27.8473C101.074 24.4367 101.967 21.4143 104.202 18.78C106.438 16.1457 109.617 14.557 113.742 14.0141C117.866 13.4711 121.344 14.1429 124.174 16.0296C126.994 17.837 128.629 20.446 129.078 23.8565C129.548 27.4257 128.67 30.5671 126.445 33.2807C124.21 35.915 121.03 37.5037 116.906 38.0467Z" stroke="#4B38D3" stroke-width="20" mask="url(#path-1-outside-1)"/>
<path d="M82.3563 62.446C87.36 63.3545 91.4867 65.3738 94.7364 68.504C97.9736 71.5551 99.9864 75.5697 100.775 80.5476C101.926 87.817 99.8911 93.8901 94.6698 98.767C89.4484 103.644 81.3066 106.958 70.2445 108.71L25.443 115.806L12.3025 32.8404L54.7336 26.12C65.3216 24.443 73.694 25.1419 79.8508 28.2166C85.9951 31.2123 89.5928 36.0288 90.6441 42.666C91.2698 46.6168 90.8453 50.3289 89.3705 53.8024C87.9622 57.1843 85.6242 60.0655 82.3563 62.446ZM38.2173 46.1098L40.7516 62.1103L56.8706 59.5573C64.7722 58.3058 68.2974 54.9936 67.4464 49.6206C66.6079 44.3266 62.2379 42.3053 54.3364 43.5568L38.2173 46.1098ZM65.6637 92.062C73.8813 90.7604 77.5458 87.3046 76.6573 81.6945C75.7687 76.0845 71.2157 73.9302 62.9981 75.2317L43.3234 78.3479L45.989 95.1781L65.6637 92.062Z" stroke="#4B38D3" stroke-width="20" mask="url(#path-1-outside-1)"/>
<mask id="path-2-outside-2" maskUnits="userSpaceOnUse" x="3.30249" y="0.832031" width="513" height="124" fill="black">
<rect fill="white" x="3.30249" y="0.832031" width="513" height="124"/>
<path d="M477.031 21.5312L503.919 25.0711L492.428 77.419L474.463 75.0539L477.031 21.5312ZM479.37 107.653C475.404 107.131 472.309 105.513 470.084 102.8C467.869 100.007 466.992 96.8654 467.451 93.3755C467.921 89.8063 469.577 87.0387 472.418 85.0727C475.259 83.1067 478.662 82.3847 482.628 82.9068C486.593 83.4289 489.654 85.0019 491.81 87.6258C494.046 90.2601 494.928 93.3618 494.458 96.931C493.999 100.421 492.338 103.228 489.477 105.353C486.625 107.398 483.256 108.165 479.37 107.653Z"/>
<path d="M453.44 17.96V107H431.72V100.52C427.48 105.56 421.12 108.08 412.64 108.08C406.72 108.08 401.32 106.72 396.44 104C391.56 101.2 387.68 97.24 384.8 92.12C382 87 380.6 81.08 380.6 74.36C380.6 67.64 382 61.76 384.8 56.72C387.68 51.6 391.56 47.68 396.44 44.96C401.32 42.24 406.72 40.88 412.64 40.88C420.4 40.88 426.4 43.12 430.64 47.6V17.96H453.44ZM417.44 89.96C421.36 89.96 424.6 88.6 427.16 85.88C429.72 83.08 431 79.24 431 74.36C431 69.56 429.72 65.8 427.16 63.08C424.68 60.36 421.44 59 417.44 59C413.44 59 410.16 60.36 407.6 63.08C405.04 65.8 403.76 69.56 403.76 74.36C403.76 79.24 405.04 83.08 407.6 85.88C410.16 88.6 413.44 89.96 417.44 89.96Z"/>
<path d="M372.975 77.0366C372.963 77.1962 372.713 79.0632 372.222 82.6377L325.057 79.3396C325.781 82.7584 327.435 85.4804 330.02 87.5057C332.69 89.4567 336.1 90.5773 340.25 90.8675C343.363 91.0852 346.067 90.8332 348.363 90.1116C350.738 89.3956 353.153 88.1209 355.607 86.2876L366.707 99.5743C359.912 106.156 350.448 109.023 338.318 108.175C330.737 107.645 324.173 105.742 318.628 102.468C313.083 99.1927 308.893 94.89 306.058 89.5592C303.303 84.2341 302.151 78.3394 302.603 71.8751C303.05 65.4907 304.965 59.8907 308.349 55.075C311.819 50.1852 316.367 46.4934 321.995 43.9999C327.623 41.5064 333.828 40.4969 340.612 40.9712C347.076 41.4232 352.847 43.1901 357.924 46.2718C363.007 49.2736 366.886 53.4344 369.562 58.754C372.322 63.9993 373.46 70.0935 372.975 77.0366ZM339.601 57.1401C336.09 56.8946 333.067 57.6856 330.534 59.5134C328.08 61.3466 326.414 63.9568 325.535 67.3438L352.11 69.2021C351.712 65.7258 350.385 62.9064 348.131 60.7439C345.956 58.5869 343.113 57.3856 339.601 57.1401Z"/>
<path d="M270.746 17.4118L293.514 18.6051L288.854 107.523L266.086 106.33L270.746 17.4118Z"/>
<path d="M235.065 43.6669L250.46 42.0488L252.242 58.9954L237.443 60.5508L242.21 105.901L219.534 108.284L214.768 62.9341L205.34 63.925L203.559 46.9783L212.987 45.9874L212.811 44.3166C211.983 36.44 213.674 29.9477 217.883 24.8398C222.172 19.7234 228.573 16.7179 237.086 15.8231C239.95 15.5221 242.764 15.5079 245.528 15.7805C248.291 16.0531 250.607 16.6544 252.474 17.5843L248.546 34.1657C246.184 33.1269 243.85 32.7287 241.543 32.9712C239.156 33.2221 237.361 34.1346 236.159 35.7089C235.037 37.2748 234.622 39.4501 234.915 42.2348L235.065 43.6669Z"/>
<path d="M176.419 43.7671L191.84 42.4179L193.325 59.3931L178.502 60.69L182.476 106.116L159.763 108.104L155.789 62.6771L146.345 63.5034L144.86 46.5282L154.304 45.702L154.157 44.0284C153.467 36.1385 155.271 29.6767 159.568 24.643C163.946 19.6023 170.398 16.7089 178.925 15.9629C181.795 15.7119 184.608 15.7468 187.367 16.0676C190.125 16.3884 192.43 17.0299 194.281 17.9923L190.064 34.5027C187.721 33.4228 185.394 32.9839 183.082 33.1861C180.692 33.3953 178.881 34.2764 177.652 35.8295C176.502 37.3755 176.05 39.5432 176.294 42.3326L176.419 43.7671Z"/>
<path d="M109.543 43.6731L132.148 40.6971L140.637 105.181L118.032 108.157L109.543 43.6731ZM119.906 35.0467C115.781 35.5897 112.299 34.8782 109.458 32.9122C106.617 30.9461 104.972 28.2579 104.523 24.8473C104.074 21.4367 104.967 18.4143 107.202 15.78C109.438 13.1457 112.617 11.557 116.742 11.0141C120.866 10.4711 124.344 11.1429 127.174 13.0296C129.994 14.837 131.629 17.446 132.078 20.8565C132.548 24.4257 131.67 27.5671 129.445 30.2807C127.21 32.915 124.03 34.5037 119.906 35.0467Z"/>
<path d="M85.3563 59.446C90.36 60.3545 94.4867 62.3738 97.7364 65.504C100.974 68.5551 102.986 72.5697 103.775 77.5476C104.926 84.817 102.891 90.8901 97.6698 95.767C92.4484 100.644 84.3066 103.958 73.2445 105.71L28.443 112.806L15.3025 29.8404L57.7336 23.12C68.3216 21.443 76.694 22.1419 82.8508 25.2166C88.9951 28.2123 92.5928 33.0288 93.6441 39.666C94.2698 43.6168 93.8453 47.3289 92.3705 50.8024C90.9622 54.1843 88.6242 57.0655 85.3563 59.446ZM41.2173 43.1098L43.7516 59.1103L59.8706 56.5573C67.7722 55.3058 71.2974 51.9936 70.4464 46.6206C69.6079 41.3266 65.2379 39.3053 57.3364 40.5568L41.2173 43.1098ZM68.6637 89.062C76.8813 87.7604 80.5458 84.3046 79.6573 78.6945C78.7687 73.0845 74.2157 70.9302 65.9981 72.2317L46.3234 75.3479L48.989 92.1781L68.6637 89.062Z"/>
</mask>
<path d="M477.031 21.5312L503.919 25.0711L492.428 77.419L474.463 75.0539L477.031 21.5312ZM479.37 107.653C475.404 107.131 472.309 105.513 470.084 102.8C467.869 100.007 466.992 96.8654 467.451 93.3755C467.921 89.8063 469.577 87.0387 472.418 85.0727C475.259 83.1067 478.662 82.3847 482.628 82.9068C486.593 83.4289 489.654 85.0019 491.81 87.6258C494.046 90.2601 494.928 93.3618 494.458 96.931C493.999 100.421 492.338 103.228 489.477 105.353C486.625 107.398 483.256 108.165 479.37 107.653Z" stroke="#6064EC" stroke-width="20" mask="url(#path-2-outside-2)"/>
<path d="M453.44 17.96V107H431.72V100.52C427.48 105.56 421.12 108.08 412.64 108.08C406.72 108.08 401.32 106.72 396.44 104C391.56 101.2 387.68 97.24 384.8 92.12C382 87 380.6 81.08 380.6 74.36C380.6 67.64 382 61.76 384.8 56.72C387.68 51.6 391.56 47.68 396.44 44.96C401.32 42.24 406.72 40.88 412.64 40.88C420.4 40.88 426.4 43.12 430.64 47.6V17.96H453.44ZM417.44 89.96C421.36 89.96 424.6 88.6 427.16 85.88C429.72 83.08 431 79.24 431 74.36C431 69.56 429.72 65.8 427.16 63.08C424.68 60.36 421.44 59 417.44 59C413.44 59 410.16 60.36 407.6 63.08C405.04 65.8 403.76 69.56 403.76 74.36C403.76 79.24 405.04 83.08 407.6 85.88C410.16 88.6 413.44 89.96 417.44 89.96Z" stroke="#6064EC" stroke-width="20" mask="url(#path-2-outside-2)"/>
<path d="M372.975 77.0366C372.963 77.1962 372.713 79.0632 372.222 82.6377L325.057 79.3396C325.781 82.7584 327.435 85.4804 330.02 87.5057C332.69 89.4567 336.1 90.5773 340.25 90.8675C343.363 91.0852 346.067 90.8332 348.363 90.1116C350.738 89.3956 353.153 88.1209 355.607 86.2876L366.707 99.5743C359.912 106.156 350.448 109.023 338.318 108.175C330.737 107.645 324.173 105.742 318.628 102.468C313.083 99.1927 308.893 94.89 306.058 89.5592C303.303 84.2341 302.151 78.3394 302.603 71.8751C303.05 65.4907 304.965 59.8907 308.349 55.075C311.819 50.1852 316.367 46.4934 321.995 43.9999C327.623 41.5064 333.828 40.4969 340.612 40.9712C347.076 41.4232 352.847 43.1901 357.924 46.2718C363.007 49.2736 366.886 53.4344 369.562 58.754C372.322 63.9993 373.46 70.0935 372.975 77.0366ZM339.601 57.1401C336.09 56.8946 333.067 57.6856 330.534 59.5134C328.08 61.3466 326.414 63.9568 325.535 67.3438L352.11 69.2021C351.712 65.7258 350.385 62.9064 348.131 60.7439C345.956 58.5869 343.113 57.3856 339.601 57.1401Z" stroke="#6064EC" stroke-width="20" mask="url(#path-2-outside-2)"/>
<path d="M270.746 17.4118L293.514 18.6051L288.854 107.523L266.086 106.33L270.746 17.4118Z" stroke="#6064EC" stroke-width="20" mask="url(#path-2-outside-2)"/>
<path d="M235.065 43.6669L250.46 42.0488L252.242 58.9954L237.443 60.5508L242.21 105.901L219.534 108.284L214.768 62.9341L205.34 63.925L203.559 46.9783L212.987 45.9874L212.811 44.3166C211.983 36.44 213.674 29.9477 217.883 24.8398C222.172 19.7234 228.573 16.7179 237.086 15.8231C239.95 15.5221 242.764 15.5079 245.528 15.7805C248.291 16.0531 250.607 16.6544 252.474 17.5843L248.546 34.1657C246.184 33.1269 243.85 32.7287 241.543 32.9712C239.156 33.2221 237.361 34.1346 236.159 35.7089C235.037 37.2748 234.622 39.4501 234.915 42.2348L235.065 43.6669Z" stroke="#6064EC" stroke-width="20" mask="url(#path-2-outside-2)"/>
<path d="M176.419 43.7671L191.84 42.4179L193.325 59.3931L178.502 60.69L182.476 106.116L159.763 108.104L155.789 62.6771L146.345 63.5034L144.86 46.5282L154.304 45.702L154.157 44.0284C153.467 36.1385 155.271 29.6767 159.568 24.643C163.946 19.6023 170.398 16.7089 178.925 15.9629C181.795 15.7119 184.608 15.7468 187.367 16.0676C190.125 16.3884 192.43 17.0299 194.281 17.9923L190.064 34.5027C187.721 33.4228 185.394 32.9839 183.082 33.1861C180.692 33.3953 178.881 34.2764 177.652 35.8295C176.502 37.3755 176.05 39.5432 176.294 42.3326L176.419 43.7671Z" stroke="#6064EC" stroke-width="20" mask="url(#path-2-outside-2)"/>
<path d="M109.543 43.6731L132.148 40.6971L140.637 105.181L118.032 108.157L109.543 43.6731ZM119.906 35.0467C115.781 35.5897 112.299 34.8782 109.458 32.9122C106.617 30.9461 104.972 28.2579 104.523 24.8473C104.074 21.4367 104.967 18.4143 107.202 15.78C109.438 13.1457 112.617 11.557 116.742 11.0141C120.866 10.4711 124.344 11.1429 127.174 13.0296C129.994 14.837 131.629 17.446 132.078 20.8565C132.548 24.4257 131.67 27.5671 129.445 30.2807C127.21 32.915 124.03 34.5037 119.906 35.0467Z" stroke="#6064EC" stroke-width="20" mask="url(#path-2-outside-2)"/>
<path d="M85.3563 59.446C90.36 60.3545 94.4867 62.3738 97.7364 65.504C100.974 68.5551 102.986 72.5697 103.775 77.5476C104.926 84.817 102.891 90.8901 97.6698 95.767C92.4484 100.644 84.3066 103.958 73.2445 105.71L28.443 112.806L15.3025 29.8404L57.7336 23.12C68.3216 21.443 76.694 22.1419 82.8508 25.2166C88.9951 28.2123 92.5928 33.0288 93.6441 39.666C94.2698 43.6168 93.8453 47.3289 92.3705 50.8024C90.9622 54.1843 88.6242 57.0655 85.3563 59.446ZM41.2173 43.1098L43.7516 59.1103L59.8706 56.5573C67.7722 55.3058 71.2974 51.9936 70.4464 46.6206C69.6079 41.3266 65.2379 39.3053 57.3364 40.5568L41.2173 43.1098ZM68.6637 89.062C76.8813 87.7604 80.5458 84.3046 79.6573 78.6945C78.7687 73.0845 74.2157 70.9302 65.9981 72.2317L46.3234 75.3479L48.989 92.1781L68.6637 89.062Z" stroke="#6064EC" stroke-width="20" mask="url(#path-2-outside-2)"/>
</svg>
